<svg width="24" height="24" viewBox="0 0 24 24" fill="none" xmlns="http://www.w3.org/2000/svg">
<path d="M4.5 7.5C4.89782 7.5 5.27936 7.65804 5.56066 7.93934C5.84196 8.22064 6 8.60218 6 9V19.5C6 19.8978 5.84196 20.2794 5.56066 20.5607C5.27936 20.842 4.89782 21 4.5 21H1.5C0.673 21 0 20.328 0 19.5V9C0 8.172 0.673 7.5 1.5 7.5H4.5ZM13.5 3C13.8978 3 14.2794 3.15804 14.5607 3.43934C14.842 3.72064 15 4.10218 15 4.5V19.5C15 19.8978 14.842 20.2794 14.5607 20.5607C14.2794 20.842 13.8978 21 13.5 21H10.5C9.673 21 9 20.328 9 19.5V4.5C9 3.672 9.673 3 10.5 3H13.5ZM22.5 10.5C22.8978 10.5 23.2794 10.658 23.5607 10.9393C23.842 11.2206 24 11.6022 24 12V19.5C24 19.8978 23.842 20.2794 23.5607 20.5607C23.2794 20.842 22.8978 21 22.5 21H19.5C19.1022 21 18.7206 20.842 18.4393 20.5607C18.158 20.2794 18 19.8978 18 19.5V12C18 11.6022 18.158 11.2206 18.4393 10.9393C18.7206 10.658 19.1022 10.5 19.5 10.5H22.5Z" fill="#0075FF"/>
</svg>
