<svg width="16" height="11" viewBox="0 0 16 11" fill="none" xmlns="http://www.w3.org/2000/svg">
<path d="M0 0.5C0 0.367392 0.0526785 0.240215 0.146447 0.146447C0.240215 0.0526785 0.367392 0 0.5 0H15.5C15.6326 0 15.7598 0.0526785 15.8536 0.146447C15.9473 0.240215 16 0.367392 16 0.5C16 0.632608 15.9473 0.759785 15.8536 0.853553C15.7598 0.947321 15.6326 1 15.5 1H0.5C0.367392 1 0.240215 0.947321 0.146447 0.853553C0.0526785 0.759785 0 0.632608 0 0.5ZM0 5.5C0 5.36739 0.0526785 5.24021 0.146447 5.14645C0.240215 5.05268 0.367392 5 0.5 5H15.5C15.6326 5 15.7598 5.05268 15.8536 5.14645C15.9473 5.24021 16 5.36739 16 5.5C16 5.63261 15.9473 5.75979 15.8536 5.85355C15.7598 5.94732 15.6326 6 15.5 6H0.5C0.367392 6 0.240215 5.94732 0.146447 5.85355C0.0526785 5.75979 0 5.63261 0 5.5ZM0.5 10C0.367392 10 0.240215 10.0527 0.146447 10.1464C0.0526785 10.2402 0 10.3674 0 10.5C0 10.6326 0.0526785 10.7598 0.146447 10.8536C0.240215 10.9473 0.367392 11 0.5 11H15.5C15.6326 11 15.7598 10.9473 15.8536 10.8536C15.9473 10.7598 16 10.6326 16 10.5C16 10.3674 15.9473 10.2402 15.8536 10.1464C15.7598 10.0527 15.6326 10 15.5 10H0.5Z" fill="white"/>
</svg>
