<svg width="264" height="33" viewBox="0 0 264 33" fill="none" xmlns="http://www.w3.org/2000/svg">
<path d="M8.464 24.192C7.968 24.192 7.584 24.056 7.312 23.784C7.056 23.496 6.928 23.104 6.928 22.608V9.648H2.248C1.832 9.648 1.504 9.536 1.264 9.312C1.04 9.072 0.928 8.752 0.928 8.352C0.928 7.936 1.04 7.624 1.264 7.416C1.504 7.192 1.832 7.08 2.248 7.08H14.68C15.096 7.08 15.416 7.192 15.64 7.416C15.88 7.624 16 7.936 16 8.352C16 8.752 15.88 9.072 15.64 9.312C15.416 9.536 15.096 9.648 14.68 9.648H10V22.608C10 23.104 9.872 23.496 9.616 23.784C9.36 24.056 8.976 24.192 8.464 24.192ZM20.2668 24.192C19.7868 24.192 19.4188 24.064 19.1628 23.808C18.9068 23.536 18.7788 23.152 18.7788 22.656V8.4C18.7788 7.904 18.9068 7.528 19.1628 7.272C19.4188 7.016 19.7868 6.888 20.2668 6.888C20.7468 6.888 21.1148 7.016 21.3708 7.272C21.6428 7.528 21.7788 7.904 21.7788 8.4V14.616H21.4428C21.7948 13.768 22.3388 13.128 23.0748 12.696C23.8268 12.248 24.6748 12.024 25.6188 12.024C26.5628 12.024 27.3388 12.2 27.9468 12.552C28.5548 12.904 29.0108 13.44 29.3148 14.16C29.6188 14.864 29.7708 15.76 29.7708 16.848V22.656C29.7708 23.152 29.6428 23.536 29.3868 23.808C29.1308 24.064 28.7628 24.192 28.2828 24.192C27.8028 24.192 27.4268 24.064 27.1548 23.808C26.8988 23.536 26.7708 23.152 26.7708 22.656V16.992C26.7708 16.08 26.5948 15.416 26.2428 15C25.9068 14.584 25.3788 14.376 24.6588 14.376C23.7788 14.376 23.0748 14.656 22.5468 15.216C22.0348 15.76 21.7788 16.488 21.7788 17.4V22.656C21.7788 23.68 21.2748 24.192 20.2668 24.192ZM38.6018 24.24C37.2738 24.24 36.1298 23.992 35.1698 23.496C34.2098 23 33.4658 22.296 32.9378 21.384C32.4258 20.472 32.1698 19.392 32.1698 18.144C32.1698 16.928 32.4178 15.864 32.9138 14.952C33.4258 14.04 34.1218 13.328 35.0018 12.816C35.8978 12.288 36.9138 12.024 38.0498 12.024C38.8818 12.024 39.6258 12.16 40.2818 12.432C40.9538 12.704 41.5218 13.096 41.9858 13.608C42.4658 14.12 42.8258 14.744 43.0658 15.48C43.3218 16.2 43.4498 17.016 43.4498 17.928C43.4498 18.216 43.3458 18.44 43.1378 18.6C42.9458 18.744 42.6658 18.816 42.2978 18.816H34.5938V17.088H41.3378L40.9538 17.448C40.9538 16.712 40.8418 16.096 40.6178 15.6C40.4098 15.104 40.0978 14.728 39.6818 14.472C39.2818 14.2 38.7778 14.064 38.1698 14.064C37.4978 14.064 36.9218 14.224 36.4418 14.544C35.9778 14.848 35.6178 15.288 35.3618 15.864C35.1218 16.424 35.0018 17.096 35.0018 17.88V18.048C35.0018 19.36 35.3058 20.344 35.9138 21C36.5378 21.64 37.4498 21.96 38.6498 21.96C39.0658 21.96 39.5298 21.912 40.0418 21.816C40.5698 21.704 41.0658 21.52 41.5298 21.264C41.8658 21.072 42.1618 20.992 42.4178 21.024C42.6738 21.04 42.8738 21.128 43.0178 21.288C43.1778 21.448 43.2738 21.648 43.3058 21.888C43.3378 22.112 43.2898 22.344 43.1618 22.584C43.0498 22.824 42.8498 23.032 42.5618 23.208C42.0018 23.56 41.3538 23.824 40.6178 24C39.8978 24.16 39.2258 24.24 38.6018 24.24Z" fill="#8B83A2"/>
<path d="M54.0693 24.192C53.6213 24.192 53.2773 24.064 53.0373 23.808C52.7973 23.552 52.6773 23.2 52.6773 22.752V8.328C52.6773 7.864 52.8053 7.512 53.0613 7.272C53.3173 7.016 53.6693 6.888 54.1173 6.888C54.5173 6.888 54.8293 6.968 55.0533 7.128C55.2933 7.272 55.5093 7.528 55.7013 7.896L61.6293 18.864H60.8613L66.7893 7.896C66.9813 7.528 67.1893 7.272 67.4133 7.128C67.6373 6.968 67.9493 6.888 68.3493 6.888C68.7973 6.888 69.1413 7.016 69.3813 7.272C69.6213 7.512 69.7413 7.864 69.7413 8.328V22.752C69.7413 23.2 69.6213 23.552 69.3813 23.808C69.1573 24.064 68.8133 24.192 68.3493 24.192C67.9013 24.192 67.5573 24.064 67.3173 23.808C67.0773 23.552 66.9573 23.2 66.9573 22.752V11.64H67.4853L62.4453 20.832C62.2853 21.104 62.1173 21.304 61.9413 21.432C61.7653 21.56 61.5253 21.624 61.2213 21.624C60.9173 21.624 60.6693 21.56 60.4773 21.432C60.2853 21.288 60.1173 21.088 59.9733 20.832L54.8853 11.616H55.4613V22.752C55.4613 23.2 55.3413 23.552 55.1013 23.808C54.8773 24.064 54.5333 24.192 54.0693 24.192ZM78.9612 24.24C77.6332 24.24 76.4892 23.992 75.5292 23.496C74.5692 23 73.8252 22.296 73.2972 21.384C72.7852 20.472 72.5292 19.392 72.5292 18.144C72.5292 16.928 72.7772 15.864 73.2732 14.952C73.7852 14.04 74.4812 13.328 75.3612 12.816C76.2572 12.288 77.2732 12.024 78.4092 12.024C79.2412 12.024 79.9852 12.16 80.6412 12.432C81.3132 12.704 81.8812 13.096 82.3452 13.608C82.8252 14.12 83.1852 14.744 83.4252 15.48C83.6812 16.2 83.8092 17.016 83.8092 17.928C83.8092 18.216 83.7052 18.44 83.4972 18.6C83.3052 18.744 83.0252 18.816 82.6572 18.816H74.9532V17.088H81.6972L81.3132 17.448C81.3132 16.712 81.2012 16.096 80.9772 15.6C80.7692 15.104 80.4572 14.728 80.0412 14.472C79.6412 14.2 79.1372 14.064 78.5292 14.064C77.8572 14.064 77.2812 14.224 76.8012 14.544C76.3372 14.848 75.9772 15.288 75.7212 15.864C75.4812 16.424 75.3612 17.096 75.3612 17.88V18.048C75.3612 19.36 75.6652 20.344 76.2732 21C76.8972 21.64 77.8092 21.96 79.0092 21.96C79.4252 21.96 79.8892 21.912 80.4012 21.816C80.9292 21.704 81.4252 21.52 81.8892 21.264C82.2252 21.072 82.5212 20.992 82.7772 21.024C83.0332 21.04 83.2332 21.128 83.3772 21.288C83.5372 21.448 83.6332 21.648 83.6652 21.888C83.6972 22.112 83.6492 22.344 83.5212 22.584C83.4092 22.824 83.2092 23.032 82.9212 23.208C82.3612 23.56 81.7132 23.824 80.9772 24C80.2572 24.16 79.5852 24.24 78.9612 24.24ZM90.697 24.24C89.673 24.24 88.769 23.992 87.985 23.496C87.217 23 86.617 22.296 86.185 21.384C85.753 20.456 85.537 19.368 85.537 18.12C85.537 16.856 85.753 15.776 86.185 14.88C86.617 13.968 87.217 13.264 87.985 12.768C88.769 12.272 89.673 12.024 90.697 12.024C91.673 12.024 92.521 12.264 93.241 12.744C93.977 13.224 94.473 13.856 94.729 14.64H94.465V8.4C94.465 7.904 94.593 7.528 94.849 7.272C95.105 7.016 95.473 6.888 95.953 6.888C96.433 6.888 96.801 7.016 97.057 7.272C97.329 7.528 97.465 7.904 97.465 8.4V22.656C97.465 23.152 97.337 23.536 97.081 23.808C96.825 24.064 96.457 24.192 95.977 24.192C95.497 24.192 95.129 24.064 94.873 23.808C94.617 23.536 94.489 23.152 94.489 22.656V20.784L94.753 21.504C94.513 22.336 94.025 23 93.289 23.496C92.553 23.992 91.689 24.24 90.697 24.24ZM91.537 21.96C92.129 21.96 92.649 21.816 93.097 21.528C93.545 21.24 93.889 20.816 94.129 20.256C94.385 19.68 94.513 18.968 94.513 18.12C94.513 16.84 94.241 15.888 93.697 15.264C93.153 14.624 92.433 14.304 91.537 14.304C90.945 14.304 90.425 14.448 89.977 14.736C89.529 15.008 89.177 15.432 88.921 16.008C88.681 16.568 88.561 17.272 88.561 18.12C88.561 19.384 88.833 20.344 89.377 21C89.921 21.64 90.641 21.96 91.537 21.96ZM102.064 24.168C101.584 24.168 101.216 24.024 100.96 23.736C100.704 23.448 100.576 23.048 100.576 22.536V13.728C100.576 13.2 100.704 12.8 100.96 12.528C101.216 12.24 101.584 12.096 102.064 12.096C102.544 12.096 102.912 12.24 103.168 12.528C103.44 12.8 103.576 13.2 103.576 13.728V22.536C103.576 23.048 103.448 23.448 103.192 23.736C102.936 24.024 102.56 24.168 102.064 24.168ZM102.064 9.864C101.504 9.864 101.064 9.728 100.744 9.456C100.44 9.168 100.288 8.776 100.288 8.28C100.288 7.768 100.44 7.376 100.744 7.104C101.064 6.832 101.504 6.696 102.064 6.696C102.64 6.696 103.08 6.832 103.384 7.104C103.688 7.376 103.84 7.768 103.84 8.28C103.84 8.776 103.688 9.168 103.384 9.456C103.08 9.728 102.64 9.864 102.064 9.864ZM112.045 24.24C110.829 24.24 109.773 23.992 108.877 23.496C107.981 23 107.285 22.296 106.789 21.384C106.293 20.456 106.045 19.368 106.045 18.12C106.045 17.176 106.181 16.336 106.453 15.6C106.741 14.848 107.149 14.208 107.677 13.68C108.205 13.136 108.837 12.728 109.573 12.456C110.309 12.168 111.133 12.024 112.045 12.024C113.261 12.024 114.317 12.272 115.213 12.768C116.109 13.264 116.805 13.968 117.301 14.88C117.797 15.792 118.045 16.872 118.045 18.12C118.045 19.064 117.901 19.912 117.613 20.664C117.341 21.416 116.941 22.064 116.413 22.608C115.885 23.136 115.253 23.544 114.517 23.832C113.781 24.104 112.957 24.24 112.045 24.24ZM112.045 21.96C112.637 21.96 113.157 21.816 113.605 21.528C114.053 21.24 114.397 20.816 114.637 20.256C114.893 19.68 115.021 18.968 115.021 18.12C115.021 16.84 114.749 15.888 114.205 15.264C113.661 14.624 112.941 14.304 112.045 14.304C111.453 14.304 110.933 14.448 110.485 14.736C110.037 15.008 109.685 15.432 109.429 16.008C109.189 16.568 109.069 17.272 109.069 18.12C109.069 19.384 109.341 20.344 109.885 21C110.429 21.64 111.149 21.96 112.045 21.96ZM125.945 24.24C124.713 24.24 123.641 23.992 122.729 23.496C121.817 22.984 121.113 22.264 120.617 21.336C120.121 20.408 119.873 19.32 119.873 18.072C119.873 17.128 120.009 16.288 120.281 15.552C120.569 14.8 120.977 14.168 121.505 13.656C122.033 13.128 122.673 12.728 123.425 12.456C124.177 12.168 125.017 12.024 125.945 12.024C126.473 12.024 127.041 12.096 127.649 12.24C128.273 12.384 128.857 12.624 129.401 12.96C129.657 13.12 129.825 13.312 129.905 13.536C129.985 13.76 130.001 13.992 129.953 14.232C129.905 14.456 129.801 14.656 129.641 14.832C129.497 14.992 129.313 15.096 129.089 15.144C128.865 15.176 128.617 15.12 128.345 14.976C127.993 14.768 127.633 14.616 127.265 14.52C126.897 14.408 126.545 14.352 126.209 14.352C125.681 14.352 125.217 14.44 124.817 14.616C124.417 14.776 124.073 15.016 123.785 15.336C123.513 15.64 123.305 16.024 123.161 16.488C123.017 16.952 122.945 17.488 122.945 18.096C122.945 19.28 123.225 20.216 123.785 20.904C124.361 21.576 125.169 21.912 126.209 21.912C126.545 21.912 126.889 21.864 127.241 21.768C127.609 21.672 127.977 21.52 128.345 21.312C128.617 21.168 128.857 21.12 129.065 21.168C129.289 21.216 129.473 21.328 129.617 21.504C129.761 21.664 129.849 21.864 129.881 22.104C129.913 22.328 129.881 22.552 129.785 22.776C129.705 23 129.545 23.184 129.305 23.328C128.777 23.648 128.217 23.88 127.625 24.024C127.033 24.168 126.473 24.24 125.945 24.24ZM133.377 24.192C132.881 24.192 132.497 24.064 132.225 23.808C131.969 23.536 131.841 23.152 131.841 22.656V13.584C131.841 13.088 131.969 12.712 132.225 12.456C132.481 12.2 132.841 12.072 133.305 12.072C133.769 12.072 134.129 12.2 134.385 12.456C134.641 12.712 134.769 13.088 134.769 13.584V15.096H134.529C134.753 14.136 135.193 13.408 135.849 12.912C136.505 12.416 137.377 12.12 138.465 12.024C138.801 11.992 139.065 12.08 139.257 12.288C139.465 12.48 139.585 12.784 139.617 13.2C139.649 13.6 139.553 13.928 139.329 14.184C139.121 14.424 138.801 14.568 138.369 14.616L137.841 14.664C136.865 14.76 136.129 15.064 135.633 15.576C135.137 16.072 134.889 16.776 134.889 17.688V22.656C134.889 23.152 134.761 23.536 134.505 23.808C134.249 24.064 133.873 24.192 133.377 24.192ZM146.836 24.24C145.508 24.24 144.364 23.992 143.404 23.496C142.444 23 141.7 22.296 141.172 21.384C140.66 20.472 140.404 19.392 140.404 18.144C140.404 16.928 140.652 15.864 141.148 14.952C141.66 14.04 142.356 13.328 143.236 12.816C144.132 12.288 145.148 12.024 146.284 12.024C147.116 12.024 147.86 12.16 148.516 12.432C149.188 12.704 149.756 13.096 150.22 13.608C150.7 14.12 151.06 14.744 151.3 15.48C151.556 16.2 151.684 17.016 151.684 17.928C151.684 18.216 151.58 18.44 151.372 18.6C151.18 18.744 150.9 18.816 150.532 18.816H142.828V17.088H149.572L149.188 17.448C149.188 16.712 149.076 16.096 148.852 15.6C148.644 15.104 148.332 14.728 147.916 14.472C147.516 14.2 147.012 14.064 146.404 14.064C145.732 14.064 145.156 14.224 144.676 14.544C144.212 14.848 143.852 15.288 143.596 15.864C143.356 16.424 143.236 17.096 143.236 17.88V18.048C143.236 19.36 143.54 20.344 144.148 21C144.772 21.64 145.684 21.96 146.884 21.96C147.3 21.96 147.764 21.912 148.276 21.816C148.804 21.704 149.3 21.52 149.764 21.264C150.1 21.072 150.396 20.992 150.652 21.024C150.908 21.04 151.108 21.128 151.252 21.288C151.412 21.448 151.508 21.648 151.54 21.888C151.572 22.112 151.524 22.344 151.396 22.584C151.284 22.824 151.084 23.032 150.796 23.208C150.236 23.56 149.588 23.824 148.852 24C148.132 24.16 147.46 24.24 146.836 24.24Z" fill="#0075FF"/>
<path d="M168.736 24.24C166.976 24.24 165.464 23.888 164.2 23.184C162.952 22.464 161.992 21.456 161.32 20.16C160.648 18.848 160.312 17.304 160.312 15.528C160.312 14.2 160.504 13.008 160.888 11.952C161.272 10.88 161.824 9.968 162.544 9.216C163.264 8.448 164.144 7.864 165.184 7.464C166.24 7.048 167.424 6.84 168.736 6.84C169.616 6.84 170.48 6.952 171.328 7.176C172.176 7.4 172.92 7.72 173.56 8.136C173.896 8.344 174.12 8.6 174.232 8.904C174.344 9.192 174.368 9.48 174.304 9.768C174.24 10.04 174.104 10.272 173.896 10.464C173.704 10.656 173.456 10.768 173.152 10.8C172.864 10.816 172.544 10.712 172.192 10.488C171.696 10.168 171.16 9.936 170.584 9.792C170.008 9.648 169.424 9.576 168.832 9.576C167.696 9.576 166.736 9.808 165.952 10.272C165.168 10.736 164.576 11.408 164.176 12.288C163.776 13.168 163.576 14.248 163.576 15.528C163.576 16.792 163.776 17.872 164.176 18.768C164.576 19.664 165.168 20.344 165.952 20.808C166.736 21.272 167.696 21.504 168.832 21.504C169.44 21.504 170.04 21.432 170.632 21.288C171.224 21.128 171.784 20.888 172.312 20.568C172.664 20.36 172.976 20.272 173.248 20.304C173.536 20.32 173.776 20.416 173.968 20.592C174.16 20.768 174.288 20.992 174.352 21.264C174.416 21.52 174.4 21.792 174.304 22.08C174.208 22.352 174.016 22.592 173.728 22.8C173.088 23.264 172.32 23.624 171.424 23.88C170.544 24.12 169.648 24.24 168.736 24.24ZM181.396 24.24C180.18 24.24 179.124 23.992 178.228 23.496C177.332 23 176.636 22.296 176.14 21.384C175.644 20.456 175.396 19.368 175.396 18.12C175.396 17.176 175.532 16.336 175.804 15.6C176.092 14.848 176.5 14.208 177.028 13.68C177.556 13.136 178.188 12.728 178.924 12.456C179.66 12.168 180.484 12.024 181.396 12.024C182.612 12.024 183.668 12.272 184.564 12.768C185.46 13.264 186.156 13.968 186.652 14.88C187.148 15.792 187.396 16.872 187.396 18.12C187.396 19.064 187.252 19.912 186.964 20.664C186.692 21.416 186.292 22.064 185.764 22.608C185.236 23.136 184.604 23.544 183.868 23.832C183.132 24.104 182.308 24.24 181.396 24.24ZM181.396 21.96C181.988 21.96 182.508 21.816 182.956 21.528C183.404 21.24 183.748 20.816 183.988 20.256C184.244 19.68 184.372 18.968 184.372 18.12C184.372 16.84 184.1 15.888 183.556 15.264C183.012 14.624 182.292 14.304 181.396 14.304C180.804 14.304 180.284 14.448 179.836 14.736C179.388 15.008 179.036 15.432 178.78 16.008C178.54 16.568 178.42 17.272 178.42 18.12C178.42 19.384 178.692 20.344 179.236 21C179.78 21.64 180.5 21.96 181.396 21.96ZM191.409 24.192C190.929 24.192 190.561 24.064 190.305 23.808C190.049 23.536 189.921 23.152 189.921 22.656V13.584C189.921 13.088 190.049 12.712 190.305 12.456C190.561 12.2 190.921 12.072 191.385 12.072C191.849 12.072 192.209 12.2 192.465 12.456C192.721 12.712 192.849 13.088 192.849 13.584V15.336L192.585 14.616C192.905 13.816 193.401 13.184 194.073 12.72C194.745 12.256 195.545 12.024 196.473 12.024C197.417 12.024 198.193 12.248 198.801 12.696C199.409 13.144 199.833 13.832 200.073 14.76H199.737C200.057 13.912 200.585 13.248 201.321 12.768C202.057 12.272 202.905 12.024 203.865 12.024C204.761 12.024 205.497 12.2 206.073 12.552C206.665 12.904 207.105 13.44 207.393 14.16C207.681 14.864 207.825 15.76 207.825 16.848V22.656C207.825 23.152 207.689 23.536 207.417 23.808C207.161 24.064 206.793 24.192 206.313 24.192C205.833 24.192 205.465 24.064 205.209 23.808C204.953 23.536 204.825 23.152 204.825 22.656V16.968C204.825 16.072 204.673 15.416 204.369 15C204.081 14.584 203.585 14.376 202.881 14.376C202.097 14.376 201.481 14.656 201.033 15.216C200.585 15.76 200.361 16.52 200.361 17.496V22.656C200.361 23.152 200.233 23.536 199.977 23.808C199.721 24.064 199.353 24.192 198.873 24.192C198.393 24.192 198.017 24.064 197.745 23.808C197.489 23.536 197.361 23.152 197.361 22.656V16.968C197.361 16.072 197.209 15.416 196.905 15C196.617 14.584 196.129 14.376 195.441 14.376C194.657 14.376 194.041 14.656 193.593 15.216C193.145 15.76 192.921 16.52 192.921 17.496V22.656C192.921 23.68 192.417 24.192 191.409 24.192ZM212.407 28.512C211.927 28.512 211.559 28.384 211.303 28.128C211.047 27.872 210.919 27.496 210.919 27V13.584C210.919 13.088 211.047 12.712 211.303 12.456C211.559 12.2 211.919 12.072 212.383 12.072C212.863 12.072 213.231 12.2 213.487 12.456C213.743 12.712 213.871 13.088 213.871 13.584V15.456L213.607 14.736C213.847 13.92 214.335 13.264 215.071 12.768C215.823 12.272 216.695 12.024 217.687 12.024C218.711 12.024 219.607 12.272 220.375 12.768C221.159 13.264 221.767 13.968 222.199 14.88C222.631 15.776 222.847 16.856 222.847 18.12C222.847 19.368 222.631 20.456 222.199 21.384C221.767 22.296 221.167 23 220.399 23.496C219.631 23.992 218.727 24.24 217.687 24.24C216.711 24.24 215.855 24 215.119 23.52C214.383 23.024 213.887 22.384 213.631 21.6H213.919V27C213.919 27.496 213.783 27.872 213.511 28.128C213.255 28.384 212.887 28.512 212.407 28.512ZM216.847 21.96C217.439 21.96 217.959 21.816 218.407 21.528C218.855 21.24 219.199 20.816 219.439 20.256C219.695 19.68 219.823 18.968 219.823 18.12C219.823 16.84 219.551 15.888 219.007 15.264C218.463 14.624 217.743 14.304 216.847 14.304C216.255 14.304 215.735 14.448 215.287 14.736C214.839 15.008 214.487 15.432 214.231 16.008C213.991 16.568 213.871 17.272 213.871 18.12C213.871 19.384 214.143 20.344 214.687 21C215.231 21.64 215.951 21.96 216.847 21.96ZM229.174 24.24C228.326 24.24 227.566 24.08 226.894 23.76C226.238 23.424 225.718 22.976 225.334 22.416C224.966 21.856 224.782 21.224 224.782 20.52C224.782 19.656 225.006 18.976 225.454 18.48C225.902 17.968 226.63 17.6 227.638 17.376C228.646 17.152 229.998 17.04 231.694 17.04H232.894V18.768H231.718C230.726 18.768 229.934 18.816 229.342 18.912C228.75 19.008 228.326 19.176 228.07 19.416C227.83 19.64 227.71 19.96 227.71 20.376C227.71 20.904 227.894 21.336 228.262 21.672C228.63 22.008 229.142 22.176 229.798 22.176C230.326 22.176 230.79 22.056 231.19 21.816C231.606 21.56 231.934 21.216 232.174 20.784C232.414 20.352 232.534 19.856 232.534 19.296V16.536C232.534 15.736 232.358 15.16 232.006 14.808C231.654 14.456 231.062 14.28 230.23 14.28C229.766 14.28 229.262 14.336 228.718 14.448C228.19 14.56 227.63 14.752 227.038 15.024C226.734 15.168 226.462 15.208 226.222 15.144C225.998 15.08 225.822 14.952 225.694 14.76C225.566 14.552 225.502 14.328 225.502 14.088C225.502 13.848 225.566 13.616 225.694 13.392C225.822 13.152 226.038 12.976 226.342 12.864C227.078 12.56 227.782 12.344 228.454 12.216C229.142 12.088 229.766 12.024 230.326 12.024C231.478 12.024 232.422 12.2 233.158 12.552C233.91 12.904 234.47 13.44 234.838 14.16C235.206 14.864 235.39 15.776 235.39 16.896V22.656C235.39 23.152 235.27 23.536 235.03 23.808C234.79 24.064 234.446 24.192 233.998 24.192C233.55 24.192 233.198 24.064 232.942 23.808C232.702 23.536 232.582 23.152 232.582 22.656V21.504H232.774C232.662 22.064 232.438 22.552 232.102 22.968C231.782 23.368 231.374 23.68 230.878 23.904C230.382 24.128 229.814 24.24 229.174 24.24ZM239.923 24.192C239.443 24.192 239.075 24.064 238.819 23.808C238.563 23.536 238.435 23.152 238.435 22.656V13.584C238.435 13.088 238.563 12.712 238.819 12.456C239.075 12.2 239.435 12.072 239.899 12.072C240.363 12.072 240.723 12.2 240.979 12.456C241.235 12.712 241.363 13.088 241.363 13.584V15.216L241.099 14.616C241.451 13.768 241.995 13.128 242.731 12.696C243.483 12.248 244.331 12.024 245.275 12.024C246.219 12.024 246.995 12.2 247.603 12.552C248.211 12.904 248.667 13.44 248.971 14.16C249.275 14.864 249.427 15.76 249.427 16.848V22.656C249.427 23.152 249.299 23.536 249.043 23.808C248.787 24.064 248.419 24.192 247.939 24.192C247.459 24.192 247.083 24.064 246.811 23.808C246.555 23.536 246.427 23.152 246.427 22.656V16.992C246.427 16.08 246.251 15.416 245.899 15C245.563 14.584 245.035 14.376 244.315 14.376C243.435 14.376 242.731 14.656 242.203 15.216C241.691 15.76 241.435 16.488 241.435 17.4V22.656C241.435 23.68 240.931 24.192 239.923 24.192ZM255.333 28.512C254.981 28.512 254.693 28.416 254.469 28.224C254.245 28.048 254.109 27.808 254.061 27.504C254.029 27.2 254.085 26.88 254.229 26.544L255.861 22.92V24.168L251.493 14.064C251.349 13.712 251.301 13.384 251.349 13.08C251.397 12.776 251.541 12.536 251.781 12.36C252.037 12.168 252.381 12.072 252.813 12.072C253.181 12.072 253.477 12.16 253.701 12.336C253.925 12.496 254.125 12.808 254.301 13.272L257.541 21.36H256.821L260.133 13.248C260.309 12.8 260.517 12.496 260.757 12.336C260.997 12.16 261.317 12.072 261.717 12.072C262.069 12.072 262.349 12.168 262.557 12.36C262.765 12.536 262.893 12.776 262.941 13.08C262.989 13.368 262.933 13.688 262.773 14.04L256.941 27.36C256.733 27.808 256.509 28.112 256.269 28.272C256.029 28.432 255.717 28.512 255.333 28.512Z" fill="#00C2FF"/>
</svg>
