<svg width="20" height="20" viewBox="0 0 20 20" fill="none" xmlns="http://www.w3.org/2000/svg">
<path d="M14.6079 12.172C14.6079 13.012 14.8469 13.347 15.4719 13.347C16.8649 13.347 17.7519 11.572 17.7519 8.62C17.7519 4.108 14.4639 1.948 10.3589 1.948C6.13595 1.948 2.29495 4.78 2.29495 10.132C2.29495 15.244 5.65495 18.028 10.8149 18.028C12.5669 18.028 13.7429 17.836 15.5419 17.236L15.9279 18.843C14.1519 19.42 12.2539 19.587 10.7909 19.587C4.02295 19.587 0.397949 15.867 0.397949 10.131C0.397949 4.347 4.59895 0.411003 10.3829 0.411003C16.4069 0.411003 19.5979 4.011 19.5979 8.427C19.5979 12.171 18.4229 15.027 14.7269 15.027C13.0459 15.027 11.9429 14.355 11.7989 12.866C11.3669 14.522 10.2149 15.027 8.65395 15.027C6.56595 15.027 4.81395 13.418 4.81395 10.179C4.81395 6.915 6.35095 4.899 9.11095 4.899C10.5749 4.899 11.4869 5.475 11.8929 6.387L12.5899 5.115H14.6059V12.172H14.6079V12.172ZM11.6569 9.004C11.6569 7.685 10.6719 7.132 9.85595 7.132C8.96795 7.132 7.98495 7.851 7.98495 9.964C7.98495 11.644 8.72895 12.58 9.85595 12.58C10.6479 12.58 11.6569 12.076 11.6569 10.684V9.004Z" fill="#85B6FF"/>
</svg>
