<svg width="20" height="19" viewBox="0 0 20 19" fill="none" xmlns="http://www.w3.org/2000/svg">
<path d="M14.935 3.073C15.2802 4.34302 15.3619 5.67024 15.175 6.973V7.02C15.164 7.166 15.157 7.298 15.151 7.43C15.2499 7.48265 15.3612 7.50753 15.473 7.502C15.763 7.476 16.045 7.394 16.304 7.261C16.4199 7.20371 16.5478 7.17491 16.677 7.177C16.8167 7.17482 16.9555 7.19925 17.086 7.249C17.407 7.323 17.646 7.595 17.676 7.923C17.689 8.284 17.364 8.597 16.701 8.862C16.63 8.885 16.532 8.923 16.425 8.962C16.062 9.071 15.508 9.251 15.352 9.613C15.3165 9.7299 15.3071 9.85316 15.3244 9.97409C15.3416 10.095 15.3852 10.2107 15.452 10.313L15.464 10.326C15.8154 11.124 16.3458 11.8304 17.0141 12.3903C17.6825 12.9503 18.4708 13.3488 19.318 13.555C19.4144 13.5703 19.5019 13.6204 19.564 13.6957C19.626 13.771 19.6584 13.8664 19.655 13.964C19.654 14.026 19.6418 14.0873 19.619 14.145C19.426 14.602 18.596 14.945 17.089 15.166C17.0287 15.3138 16.9845 15.4677 16.957 15.625C16.932 15.775 16.897 15.924 16.85 16.069C16.8275 16.1679 16.7699 16.2553 16.6879 16.315C16.6059 16.3748 16.5051 16.4028 16.404 16.394H16.38C16.2342 16.3873 16.0893 16.3675 15.947 16.335C15.3696 16.2112 14.7743 16.1949 14.191 16.287C13.6829 16.4201 13.2099 16.6624 12.805 16.997C12.0597 17.6238 11.1271 17.985 10.154 18.024C10.106 18.024 10.054 18.012 10.008 18.012H9.88702C8.91729 17.9752 7.98886 17.6098 7.25402 16.976C6.85388 16.6414 6.38519 16.3987 5.88102 16.265C5.63433 16.2282 5.38543 16.2081 5.13602 16.205C4.79183 16.2101 4.44905 16.2503 4.11302 16.325C3.97027 16.3587 3.82459 16.3784 3.67802 16.384C3.57261 16.3918 3.4678 16.3623 3.3819 16.3008C3.29599 16.2392 3.23445 16.1493 3.20802 16.047C3.16002 15.893 3.13702 15.734 3.10102 15.591C3.07291 15.4341 3.02833 15.2806 2.96802 15.133C1.42502 14.954 0.595023 14.616 0.403023 14.147C0.371629 14.0907 0.354318 14.0276 0.352565 13.9631C0.350812 13.8987 0.36467 13.8347 0.392956 13.7768C0.421243 13.7188 0.463121 13.6686 0.51502 13.6303C0.56692 13.5921 0.627303 13.5669 0.691023 13.557C1.53861 13.3507 2.32724 12.9518 2.99565 12.3913C3.66405 11.8308 4.19424 11.1237 4.54502 10.325L4.55402 10.3C4.62322 10.1988 4.66822 10.083 4.68556 9.96165C4.7029 9.84028 4.69211 9.71654 4.65402 9.6C4.49802 9.251 3.94302 9.071 3.58402 8.95C3.48838 8.92458 3.39504 8.89112 3.30502 8.85C2.41502 8.5 2.29402 8.102 2.34302 7.826C2.41211 7.63482 2.5407 7.47083 2.7099 7.35815C2.8791 7.24547 3.07998 7.19004 3.28302 7.2C3.38902 7.2 3.49302 7.22 3.59102 7.26C3.86702 7.402 4.16902 7.484 4.47902 7.501C4.60902 7.505 4.73902 7.474 4.85402 7.412L4.81302 6.954C4.62689 5.65481 4.70891 4.33127 5.05402 3.065C5.45081 2.14477 6.11207 1.36317 6.95387 0.819424C7.79566 0.275678 8.78003 -0.00570216 9.78202 0.0110012L10.117 1.26255e-06H10.166C11.1747 -0.0120564 12.1647 0.272858 13.0127 0.819271C13.8607 1.36568 14.5292 2.14946 14.935 3.073V3.073Z" fill="#FFD233"/>
</svg>
